<svg xmlns="http://www.w3.org/2000/svg" viewBox="0 0 400 350"><defs><style>.a{fill:#1a1a1a;}</style></defs><title>Sin título-1</title><path class="a" d="M193.1,262.46c-2,9.25-4,18.31-6,27.37-2.87,13-5.73,25.94-8.66,38.9-2.64,11.66-14.92,19.47-26.3,16.79a22.21,22.21,0,0,1-17-26.76c4.34-19.34,8.72-38.68,12.73-58.1.75-3.65-.08-7.63-.3-11.46-.48-8.34-1.08-16.68-1.55-25a8.1,8.1,0,0,0-2.66-6c-5-4.68-7.95-10.79-10.56-17-.31-.74-.63-1.47-1.17-2.75-.57,2.28-1,4-1.41,5.66-2.43,10.09-10.92,15.6-20.45,13.27-10.18-2.5-15.25-10.91-12.69-21.22,3.25-13.05,6.82-26,9.8-39.14,1.35-5.95,3.91-11.22,6.68-16.49Q127.55,114,141.46,87.53c3.37-6.39,8.78-9.61,16-9.65q18.18-.09,36.37,0c6.35,0,11.26,2.8,14.91,8,10.31,14.65,20.72,29.23,30.93,43.94,1.94,2.79,4,4.26,7.52,4.6,10.94,1.06,21.83,2.64,32.75,3.93,6.83.8,12.91,2.91,16.17,9.53,3,6.16,2.67,12.28-1.44,17.87-4.26,5.8-10.19,7.64-17.17,6.71-7.6-1-15.22-1.94-22.83-2.9-8.2-1-16.41-2-24.58-3.09a16.3,16.3,0,0,1-11.3-7.26c-3.37-4.8-6.75-9.59-10.46-14.85-.08,1.22-.16,1.92-.16,2.63,0,4.86.25,9.75-.07,14.59-.52,7.74,1.15,14.91,3.85,22.14,9,24.17,17.85,48.4,26.29,72.77,2,5.79,2.32,12.18,3.16,18.33,1.91,14.1,3.52,28.25,5.54,42.34,1.05,7.29.72,14.13-4,20.17a22.33,22.33,0,0,1-23.8,7.86c-8.76-2.53-14.86-10-16.06-19.55-2-15.81-4.15-31.6-6-47.42C196.37,272.78,195.57,267.45,193.1,262.46Zm-39-38.62c.57,8.63,1.17,16.88,1.63,25.14.25,4.32,1.05,8.82.21,13-4,19.51-8.48,38.92-12.78,58.37-1.75,7.94,2.93,15.55,10.57,17.24a14.28,14.28,0,0,0,17-11q5.61-25.3,11.19-50.62c1.56-7.13,3.53-14.18,2.6-21.69-.81-6.51-1-13.09-1.38-19.65-.17-3.07.91-4.7,3.1-5.11,2.44-.45,4,.63,5.08,3.54,2.71,7.44,5.45,14.87,8.09,22.34,2.26,6.41,5.14,12.63,5.49,19.59.13,2.54.56,5.08.89,7.61,1.83,14.12,3.75,28.22,5.47,42.35,1,7.87,8,14,15.3,13,8.66-1.19,13.85-8.21,12.7-16.64-2.1-15.37-3.91-30.78-6-46.15-.77-5.72-1.26-11.62-3.11-17-6.44-18.84-13.42-37.51-20.19-56.25-1.31-3.61-2.63-7.21-4.07-11.19-4.49,8.7-11.32,14.4-19.29,18.76-6.72,3.68-13.68,6.93-20.54,10.36C162.29,221.57,158.86,224.17,154.07,223.84Zm-21-69.13c.23,20.16,3.22,34.66,9.63,48.37,2,4.26,4.48,8.26,8.36,11.14a5.89,5.89,0,0,0,6.69.72c5.39-2.73,10.87-5.32,16.28-8,6.73-3.35,13.42-6.76,18.85-12.12,5.68-5.62,8.58-12.33,7.15-20.37-1.55-8.71-3.12-17.43-5.22-26a406,406,0,0,0-20.52-60.68c-.25-.59-.74-1.58-1.07-1.56-2.61.14-5.39-1.13-7.76,1.16C144.93,107.15,133.58,131,133,154.71ZM182.91,86,200,134.35c0-.38,0-.89,0-1.39-.12-2.44.12-4.7,2.95-5.52,2.65-.76,4.05.86,5.4,2.8,5.61,8,11.33,16,16.93,24a10.25,10.25,0,0,0,7.67,4.46c9.31,1.11,18.6,2.29,27.9,3.41,6.59.8,13.18,1.74,19.8,2.25,4.88.38,8.39-2.87,9.13-7.75a8.67,8.67,0,0,0-6.61-9.57,44.86,44.86,0,0,0-5.81-.8q-18-2.22-36-4.43A6.53,6.53,0,0,1,236.2,139c-4.48-6.54-9.11-13-13.69-19.45q-10.39-14.73-20.78-29.46a40.62,40.62,0,0,1-2.11-3.75l-.48,1.14-.54-.35c-.11-.56-.21-1.11-.22-1.14Zm-52.14,40.31-.43-.14c-3.25,6.15-6.55,12.28-9.75,18.46a78.11,78.11,0,0,0-4.9,10.35c-1.41,4.17-2.1,8.58-3.15,12.87C110,178,107.49,188.16,105,198.32c-1.34,5.46,1.1,9.66,6.28,11s9.42-1.1,10.85-6.52c1.05-4,1.87-8,3.05-11.87,1.63-5.37,2.5-10.73,1-16.28a22.71,22.71,0,0,1-.51-3.8,101.07,101.07,0,0,1,3.11-37C129.48,131.38,130.1,128.84,130.77,126.31Zm23.95-39.74c-3.92.86-8,6-8.24,10.07Z"/><path class="a" d="M176.07,75.87a35.91,35.91,0,1,1,36.09-35.78A35.93,35.93,0,0,1,176.07,75.87Zm-.07-8.1a27.79,27.79,0,1,0-27.7-27.65A27.84,27.84,0,0,0,176,67.77Z"/></svg>