<svg xmlns="http://www.w3.org/2000/svg" viewBox="0 0 400 350"><defs><style>.a{fill:#1a1a1a;}</style></defs><title>Sin título-1</title><path class="a" d="M151.36,180.69c-3.85-9.14-7.92-17.72-11.11-26.62-4.95-13.79-7.44-28-5.74-42.78C137.76,83,161.13,59,189.52,55c34.6-4.87,66.16,16.65,74,50.53,3.42,14.84,1.42,29.43-3.43,43.53-3.29,9.56-7.82,18.69-11.8,28-.42,1-.91,1.91-1.58,3.32,1.68,0,3,0,4.23,0,8.84.09,17.72-.25,26.52.43,8,.61,13.93,5.26,16.71,12.88,9,24.69,18,49.41,26.52,74.26,4.77,13.83-4.9,27.15-19.52,27.78-1,0-2,0-2.95,0q-98.51,0-197-.11a29.83,29.83,0,0,1-12.31-2.5c-9.58-4.53-13.77-15.37-10.22-25.53,6.63-19.06,13.48-38,20.24-57,1.83-5.14,3.62-10.29,5.51-15.4,3.4-9.2,10.74-14.38,20.5-14.44C133.71,180.65,142.54,180.69,151.36,180.69Zm48,48.87c2.89-3.31,5.45-6.13,7.89-9.05,16.14-19.38,30.65-39.81,40.25-63.32,5.83-14.29,9.8-29,7.81-44.65C252,86.3,231.9,66.87,204.85,63.63c-24.28-2.9-48.72,12.2-57.9,35.73-5.54,14.19-4.62,28.54-.77,42.8C155.4,176.26,176.18,203.36,199.41,229.56Zm92.39-14.73a4.26,4.26,0,0,0,0-.93c-1.73-4.94-3.44-9.88-5.22-14.81-2.33-6.47-6.2-9.2-13.07-9.22-9.73,0-19.45.08-29.17-.06a5,5,0,0,0-4.92,2.75,296.39,296.39,0,0,1-34.91,45.37c-3.88,4.15-5.74,4.17-9.66.12a280.16,280.16,0,0,1-36-45.72c-.69-1.09-2.2-2.34-3.34-2.35-10.49-.18-21-.14-31.46-.06a11.31,11.31,0,0,0-9.22,4.86c-1.55,2-1.84,3.56.4,5.74q27.93,27.21,55.53,54.76c1.88,1.87,3.37,2.3,5.93,1.36q46.23-16.92,92.55-33.59Zm-182-6.68a9,9,0,0,0-.72,1.16c-7.27,20.45-14.57,40.88-21.73,61.36a13.71,13.71,0,0,0-.52,6.11c.88,6.71,6.38,10,12.63,7.7l35.38-12.79c9.52-3.45,19-6.91,29-10.54Zm149.37,78.2-21.88-42L123,285.81l.2.54Zm35.59-62.91-49.08,17.8c7.83,14.87,15.48,29.45,23.24,44a3.47,3.47,0,0,0,2.62,1.29c9.83.08,19.66.19,29.49,0,7.91-.17,13.21-7.35,10.7-14.77C306.33,255.69,300.55,239.81,294.76,223.44Z"/><path class="a" d="M165.43,121.34a34.09,34.09,0,1,1,33.94,34.42A34,34,0,0,1,165.43,121.34Zm34,25.4A24.9,24.9,0,1,0,174.61,122,25,25,0,0,0,199.45,146.74Z"/></svg>