<svg xmlns="http://www.w3.org/2000/svg" viewBox="0 0 400 350"><defs><style>.a{fill:#1a1a1a;}</style></defs><title>Sin título-1</title><path class="a" d="M391.36,165.52l-45.08-54.8a8.26,8.26,0,0,0-6.41-3H260.48a8.3,8.3,0,0,0-8.29,8.29v45.28h-4.54a59.3,59.3,0,0,0-36.53-37.34,35.5,35.5,0,1,0-39.11,0,59.25,59.25,0,0,0-29.77,23.35,59.23,59.23,0,0,0-29.78-23.35,35.5,35.5,0,1,0-39.09,0,59.29,59.29,0,0,0-36.54,37.34H21.69a8.3,8.3,0,0,0-8.29,8.3v26.12A8.3,8.3,0,0,0,6,203.93v50.36a8.32,8.32,0,0,0,8.3,8.3h38a32.27,32.27,0,0,0,64.12,0H291.12a32.27,32.27,0,0,0,64.11,0H385a8.32,8.32,0,0,0,8.3-8.3v-83.5A8.36,8.36,0,0,0,391.36,165.52ZM165.29,94.33a26.28,26.28,0,1,1,26.28,26.27A26.31,26.31,0,0,1,165.29,94.33Zm-18,62.45a49.78,49.78,0,0,1,90.53,4.49H145.28C145.88,159.73,146.58,158.24,147.32,156.78ZM66.64,94.33A26.28,26.28,0,1,1,92.92,120.6,26.31,26.31,0,0,1,66.64,94.33Zm26.28,35.49a49.86,49.86,0,0,1,44.24,27c-.62,1.47-1.18,3-1.68,4.49H46.63A49.87,49.87,0,0,1,92.92,129.82Zm14.21,132.77a23,23,0,0,1-45.49,0,22.5,22.5,0,0,1-.3-3.69,22.88,22.88,0,0,1,.67-5.53,23.12,23.12,0,0,1,16.08-16.64h0a22.44,22.44,0,0,1,6.29-.88,23.06,23.06,0,0,1,22.37,17.52,22.4,22.4,0,0,1,.68,5.53A21.45,21.45,0,0,1,107.13,262.59Zm41.54-57.74H252.19v48.52h-136a32.2,32.2,0,0,0-8.37-16.66,32.7,32.7,0,0,0-10.74-7.49,32.11,32.11,0,0,0-12.68-2.59,31.44,31.44,0,0,0-6.09.58h0A32.29,32.29,0,0,0,52.6,253.37H15.24V204.85H148.67Zm103.52-9.22H22.62V170.49H252.19Zm67.3-78.71h19.95l39.43,47.94H319.49Zm26.43,145.67a23,23,0,0,1-45.49,0,22.5,22.5,0,0,1-.3-3.69,23,23,0,0,1,45.42-5.53,22.4,22.4,0,0,1,.68,5.53A21.45,21.45,0,0,1,345.92,262.59ZM384,253.37H355a32.27,32.27,0,0,0-63.58,0h-30V116.92h48.86v48.86a8.32,8.32,0,0,0,8.3,8.3H384Z"/></svg>